<?xml version="1.0" encoding="UTF-8"?>
<svg width="16px" height="16px" viewBox="0 0 16 16" version="1.1" xmlns="http://www.w3.org/2000/svg" xmlns:xlink="http://www.w3.org/1999/xlink">
    <!-- Generator: Sketch 42 (36781) - http://www.bohemiancoding.com/sketch -->
    <title>Logo/small</title>
    <desc>Created with Sketch.</desc>
    <defs></defs>
    <g id="Symbols" stroke="none" stroke-width="1" fill="none" fill-rule="evenodd">
        <g id="Logo/small">
            <circle id="Oval-2" stroke="#B33E00" cx="8" cy="8" r="7.5"></circle>
            <path d="M7.99641688,2.375 L3.125,5.1874625 L3.125,10.8125425 L3.2863255,10.905755 L7.99641688,13.625005 L12.867834,10.8125425 L12.867834,5.1874625 L7.99641688,2.375 L7.99641688,2.375 Z M7.99641687,3.3243625 L9.9421495,6.2024375 L6.05068425,6.2024375 L7.99641687,3.3243625 Z M6.94327938,3.728875 L5.34339538,6.09535 L4.093922,5.374025 L6.94327938,3.728875 Z M9.04970775,3.728875 L11.8989117,5.3738625 L10.6495999,6.0951875 L9.04970775,3.728875 L9.04970775,3.728875 Z M3.770948,5.933225 L5.02057475,6.6545625 L3.770948,9.22353 L3.770948,5.933225 Z M12.2218858,5.933225 L12.2218858,9.2236925 L10.9722509,6.6545625 L12.2217243,5.933225 L12.2218858,5.933225 Z M6.0019555,6.848225 L9.99087825,6.848225 L7.99641687,10.3028425 L6.0019555,6.848225 L6.0019555,6.848225 Z M5.46687637,7.2134625 L7.4127625,10.583555 L3.947413,10.3375425 L5.46687637,7.2134625 L5.46687637,7.2134625 Z M10.5259574,7.2134625 L12.0455743,10.3375425 L8.58023275,10.583555 L10.5259574,7.2134625 L10.5259574,7.2134625 Z M4.8237625,11.047355 L7.67344288,11.2498425 L7.67344288,12.6926675 L4.8237625,11.047355 Z M11.1692246,11.047355 L8.31939087,12.6926675 L8.31939087,11.2498425 L11.1692246,11.047355 Z" id="Shape" fill="#F57C00" fill-rule="nonzero"></path>
        </g>
    </g>
</svg>